<?xml version="1.0" encoding="iso-8859-1"?>
<!-- Generator: Adobe Illustrator 19.0.0, SVG Export Plug-In . SVG Version: 6.00 Build 0)  -->
<svg version="1.1" id="Capa_1" xmlns="http://www.w3.org/2000/svg" xmlns:xlink="http://www.w3.org/1999/xlink" x="0px" y="0px"
	 viewBox="0 0 512 512" style="enable-background:new 0 0 512 512;" xml:space="preserve">
<path style="fill:#61AFF6;" d="M314.812,504.705H53.083c-12.485,0-22.606-10.121-22.606-22.606V29.901
	c0-12.485,10.121-22.606,22.606-22.606h261.729c12.485,0,22.606,10.121,22.606,22.606V482.1
	C337.418,494.584,327.297,504.705,314.812,504.705z"/>
<path style="fill:#55A2F0;" d="M314.812,7.295h-24.775c0.869,2.401,1.345,4.991,1.345,7.693v452.199
	c0,12.485-10.121,22.606-22.606,22.606H31.822c3.148,8.697,11.478,14.913,21.261,14.913h261.729
	c12.485,0,22.606-10.121,22.606-22.606V29.901C337.418,17.416,327.297,7.295,314.812,7.295z"/>
<path style="fill:#F2F2F2;" d="M297.873,426.205H70.022c-5.161,0-9.345-4.184-9.345-9.345V45.267c0-5.161,4.184-9.345,9.345-9.345
	h227.85c5.161,0,9.345,4.184,9.345,9.345V416.86C307.218,422.021,303.034,426.205,297.873,426.205z"/>
<path style="fill:#E6E6E6;" d="M297.873,35.921h-46.197c5.161,0,9.345,4.184,9.345,9.345V416.86c0,5.161-4.184,9.345-9.345,9.345
	h46.197c5.161,0,9.345-4.184,9.345-9.345V45.267C307.218,40.106,303.034,35.921,297.873,35.921z"/>
<circle style="fill:#F2F2F2;" cx="183.95" cy="465.76" r="19.452"/>
<path style="fill:#B6FA4C;" d="M464.664,124.034H183.947v219.238h280.717c9.311,0,16.859-7.548,16.859-16.859v-185.52
	C481.523,131.582,473.975,124.034,464.664,124.034z"/>
<path style="fill:#A8E83A;" d="M464.664,124.034h-30.15c0.833,1.997,1.296,4.186,1.296,6.485v185.52
	c0,9.311-7.548,16.859-16.859,16.859H183.947v10.374h280.717c9.311,0,16.859-7.548,16.859-16.859v-185.52
	C481.523,131.582,473.975,124.034,464.664,124.034z"/>
<path style="fill:#77DD00;" d="M456.61,174.892c-11.948-5.263-21.516-14.924-26.665-26.933c-0.888-2.072-2.947-3.397-5.202-3.397
	H183.947v178.182h240.796c2.254,0,4.313-1.324,5.202-3.396c5.149-12.009,14.717-21.671,26.665-26.933
	c2.043-0.9,3.341-2.945,3.341-5.177V180.069C459.951,177.836,458.653,175.792,456.61,174.892z"/>
<path style="fill:#73CC00;" d="M456.61,174.892c-11.948-5.263-21.516-14.924-26.665-26.933c-0.888-2.072-2.947-3.397-5.202-3.397
	h-11.478v132.3c0,2.232-1.298,4.277-3.341,5.177c-11.948,5.263-21.516,14.924-26.665,26.933c-0.888,2.072-2.947,3.396-5.202,3.396
	h-194.11v10.374h240.796c2.254,0,4.313-1.324,5.202-3.396c5.149-12.009,14.717-21.671,26.665-26.933
	c2.043-0.9,3.341-2.945,3.341-5.177V180.069C459.951,177.836,458.653,175.792,456.61,174.892z"/>
<circle style="fill:#B6FA4C;" cx="289.26" cy="233.65" r="63.11"/>
<path style="fill:#21D8DE;" d="M297.873,35.921H70.022c-5.161,0-9.345,4.184-9.345,9.345V75.42h246.541V45.267
	C307.218,40.106,303.034,35.921,297.873,35.921z"/>
<path style="fill:#10C4C4;" d="M297.873,35.921h-46.197c5.161,0,9.345,4.184,9.345,9.345V75.42h46.197V45.267
	C307.218,40.106,303.034,35.921,297.873,35.921z"/>
<path d="M337.418,360.754c-4.029,0-7.294,3.266-7.294,7.295V482.1c0,8.443-6.869,15.312-15.312,15.312H53.083
	c-8.443,0-15.311-6.869-15.311-15.312V29.901c0-8.443,6.868-15.312,15.311-15.312h261.729c8.443,0,15.312,6.869,15.312,15.312v70.73
	c0,4.029,3.265,7.295,7.294,7.295s7.294-3.266,7.294-7.295v-70.73C344.713,13.414,331.3,0,314.812,0H53.083
	c-16.487,0-29.9,13.414-29.9,29.901v452.198c0,16.487,13.413,29.901,29.9,29.901h261.729c16.488,0,29.901-13.414,29.901-29.901
	V368.048C344.713,364.019,341.447,360.754,337.418,360.754z"/>
<path d="M157.201,465.757c0,14.748,11.999,26.746,26.747,26.746s26.747-11.998,26.747-26.746c0-14.748-11.999-26.747-26.747-26.747
	C169.2,439.011,157.201,451.009,157.201,465.757z M196.105,465.757c0,6.704-5.454,12.158-12.158,12.158
	c-6.704,0-12.158-5.454-12.158-12.158c0-6.704,5.454-12.158,12.158-12.158C190.652,453.6,196.105,459.054,196.105,465.757z"/>
<path d="M289.256,163.25c-38.82,0-70.402,31.582-70.402,70.402s31.582,70.402,70.402,70.402s70.402-31.582,70.402-70.402
	S328.077,163.25,289.256,163.25z M289.256,289.466c-30.776,0-55.813-25.038-55.813-55.813s25.038-55.813,55.813-55.813
	s55.813,25.038,55.813,55.813S320.032,289.466,289.256,289.466z"/>
<path d="M307.218,107.924c4.029,0,7.294-3.266,7.294-7.295V75.421V45.267c0-9.176-7.465-16.64-16.64-16.64H70.022
	c-9.176,0-16.641,7.465-16.641,16.64v30.154V416.86c0,9.175,7.465,16.64,16.641,16.64h227.851c9.175,0,16.64-7.465,16.64-16.64
	v-48.813c0-4.029-3.265-7.295-7.294-7.295s-7.294,3.266-7.294,7.295v48.813c0,1.131-0.92,2.051-2.051,2.051H70.022
	c-1.131,0-2.052-0.92-2.052-2.051V82.715h231.953v17.915C299.924,104.659,303.189,107.924,307.218,107.924z M67.971,68.126V45.267
	c0-0.989,0.705-1.818,1.639-2.009c0.133-0.027,0.272-0.042,0.413-0.042h227.851c0.141,0,0.279,0.014,0.413,0.042
	c0.933,0.192,1.638,1.02,1.638,2.009v22.859H67.971z"/>
<path d="M464.664,116.739H191.242v-15.141c0-4.029-3.265-7.295-7.295-7.295c-4.029,0-7.294,3.266-7.294,7.295v259.155
	c0,4.029,3.265,7.295,7.294,7.295s7.295-3.266,7.295-7.295v-10.187h273.421c13.318,0,24.154-10.835,24.154-24.153v-185.52
	C488.817,127.574,477.982,116.739,464.664,116.739z M191.242,151.857h232.449c5.845,12.957,16.07,23.284,28.965,29.253v105.086
	c-12.896,5.97-23.12,16.296-28.965,29.254H191.242V151.857z M474.228,326.413c0,5.274-4.29,9.564-9.565,9.564H191.242v-5.939
	h233.502c5.196,0,9.869-3.068,11.906-7.816c4.446-10.371,12.579-18.586,22.901-23.133c4.674-2.059,7.694-6.711,7.694-11.853V180.069
	c0-5.14-3.019-9.792-7.693-11.852h-0.001c-10.322-4.547-18.455-12.762-22.901-23.131c-2.034-4.749-6.708-7.818-11.906-7.818H191.242
	v-5.94h273.421c5.274,0,9.565,4.291,9.565,9.565V326.413z"/>
<path d="M287.411,273.031c-13.87-0.224-23.265-7.718-23.265-13.199c0-2.685,2.349-6.376,5.145-6.376c3.691,0,6.711,7.83,18.12,8.724
	v-26.285c-10.066-3.579-21.252-7.606-21.252-21.923c0-14.093,10.626-19.686,21.252-20.804v-3.244c0-1.342,1.342-2.573,3.244-2.573
	c1.678,0,3.355,1.23,3.355,2.573v3.02c7.606,0.224,18.344,2.573,18.344,8.053c0,2.125-1.566,6.375-4.922,6.375
	c-2.684,0-5.592-3.579-13.422-4.138v22.706c9.731,3.579,20.357,8.501,20.357,23.713c0,13.758-8.277,21.364-20.357,23.041v3.803
	c0,1.342-1.678,2.573-3.355,2.573c-1.902,0-3.244-1.23-3.244-2.573L287.411,273.031L287.411,273.031z M288.082,223.816V203.46
	c-6.264,0.783-10.738,3.579-10.738,9.395C277.344,219.231,282.154,221.58,288.082,223.816z M293.339,238.357v23.601
	c6.04-1.118,9.843-4.698,9.843-11.073C303.182,243.838,298.82,240.706,293.339,238.357z"/>
<g>
</g>
<g>
</g>
<g>
</g>
<g>
</g>
<g>
</g>
<g>
</g>
<g>
</g>
<g>
</g>
<g>
</g>
<g>
</g>
<g>
</g>
<g>
</g>
<g>
</g>
<g>
</g>
<g>
</g>
</svg>
